<mxfile host="app.diagrams.net" agent="Mozilla/5.0 (X11; Ubuntu; Linux x86_64; rv:136.0) Gecko/20100101 Firefox/136.0" version="26.2.2">
  <diagram name="Page-1" id="yjm1BXQTRQd5WNw_62g9">
    <mxGraphModel dx="2212" dy="765" grid="1" gridSize="10" guides="1" tooltips="1" connect="1" arrows="1" fold="1" page="1" pageScale="1" pageWidth="850" pageHeight="1100" math="1" shadow="0">
      <root>
        <mxCell id="0" />
        <mxCell id="1" parent="0" />
        <mxCell id="EBjj6RX4kK_-6JCiUkeC-1" value="" style="shape=image;verticalLabelPosition=bottom;labelBackgroundColor=default;verticalAlign=top;aspect=fixed;imageAspect=0;image=data:image/png,iVBORw0KGgoAAAANSUhEUgAAATYAAAFsCAYAAABGqZU4AAAABHNCSVQICAgIfAhkiAAAABl0RVh0U29mdHdhcmUAZ25vbWUtc2NyZWVuc2hvdO8Dvz4AAAAudEVYdENyZWF0aW9uIFRpbWUATW9uIDA3IEFwciAyMDI1IDAzOjUzOjA0IFBNIEVFU1QmpfOGAAAgAElEQVR4nOzde1xTd57/8ZfXxAuBqhgQhAoatRW0Ktptja0I01bo2gozO0pnrLW/TktndtTf1Gp3dtHHTmtbp+r+2lLHFh23i3ZmANvd0Buoo8GZ0uiKoRabWmoCqAHFJF5I8JLfHwjesAIGDoTP8/HwIZCccz45J3nn+z3nfM/p4fV6vQghhB/pqXQBQgjhaxJsQgi/I8EmhPA7EmxCCL8jwSaE8DsSbEIIvyPBJoTwOxJsQgi/I8EmhPA7EmxCCL8jwSaE8DsSbEIIvyPBJoTwOxJsQgi/I8EmhPA7EmxCCL8jwSaE8DsSbEIIvyPBJoTwOxJsQgi/01vpAjobj8dDfX09Ho+n6efz58/Tt29fVCrVNf/37dtX6XL9RuN6rq+vv+bnixcv0qdPH/r06dO0zvv27Uu/fv2ULrnTa3z/Xv+vZ8+e16zLxn99+vRRumSf6XbBVl1djcVi4dixY7hcLlwuF06nE5fLxdmzZ1s9P41Gg0ajITAwEI1GQ1BQEOHh4YwZM4aBAwe2wyvoes6cOUN5eTk2mw2n08np06c5c+ZM0/9nzpxp03z79OnDgAEDCAgIICAggIEDBxIQEMDgwYMZMWIEUVFRPn4lnce5c+c4fPgwNpsNh8PRtC5dLhenT5+mrq6uTfPVaDQMHDgQjUbTtF6HDBlCVFQUI0aM8PGraD89/P32e7W1tZjNZiwWCxaLhdOnTzc91rjh1Go1AwYMYMCAAU3fXI3/evfuTZ8+fZpaEOfPn+fChQtN335nzpzh3LlznD17lrq6ums+pKGhoeh0OkaPHs3YsWPp37+/Equgw1VWVmKxWPj+++85cuQI1dXVTY+p1Wr69etH//796devX9O/q9d77969m9Z7r169OH/+fNN6b/x3/vx53G43586do66ujnPnzjX9fuHChablNX4go6OjGT16dJf9sqmtraWsrIzy8nK+++47jh071vSYWq2+Zn0OGDCA/v37X/P+bfy/T58+XLp06Zr12fizx+Npeh/X1dVx9uzZG9bnqFGjiI6OZuTIkYwePbrT9lr8MthOnjzJ3r172bt3LzabDWjY+OHh4URERDB8+HAGDx5Mjx49fL7sS5cuYbfbsdls2Gw2jh49yoULF+jZsydjxoxh4sSJ3HPPPV32A9Ycj8fD119/zVdffUVpaSlOpxOAfv36ERISQnh4OKGhoYSGhtK7d/t3Ek6fPs3Ro0eb/lVXV3Pp0iV69OhBREQEsbGxjBs3jsjIyHZ5D/iC1+vl+++/x2w2c+DAAY4ePQo0tFJDQ0MJDw9n2LBhhIWFtfs6dblcHD16lKqqKqqqqjhx4gRer5fevXszZswYYmNjmTBhAoGBge1aR2v4VbDt3buXzz//HKvVCkB4eDgjRozgzjvvZOjQoYrVVVlZeUPr5e6772bWrFmMHDlSsbpul9ls5q9//SsHDx4EGroxYWFhhIWFMXz4cAYNGqRwhVdUVVVRUVFBRUUFx44d4/z58wwYMICpU6eSkJDA4MGDlS4RAKfTSUFBAX/72984e/Ysffr0Yfjw4URERBAeHo5Wq1W6ROrr66mqqsJms1FRUYHdbgcgIiKCBx54gGnTpilcoZ8E2759+/joo4+w2+3cdddd6HQ6IiMjO6R10Fp1dXUcOXKEr7/+miNHjjB27Fj+8R//sUvtDyoqKuLzzz/HbrczcuRIRo4cSXh4eKf6xr6VY8eOUVFRgdlsxul0MmnSJB566CEiIyMVqaempoZPP/2UoqIiAgICGD9+PBEREYSGhipST2t4PB4qKiooLy+ntLQUjUbDj370Ix544AHFuqpdOtiOHTtGVlYWFRUVxMTEMGXKFIKCgpQuq8WOHTvGF198QXl5OTExMcyfP5+AgACly7opo9HIhx9+SH19PePGjeOee+7pUuv7ZsrLy9m/fz9HjhxBp9Mxb968DguUc+fO8cEHH1BcXExwcDBTp05l9OjRHbLs9nDu3Dn2799PSUkJPXr04LHHHuPBBx/s8Dq6bLB9/vnn5ObmEhkZyUMPPdSpA+FWjh07xqefforH4+HJJ58kNjZW6ZKuUV1dzebNmzl8+DDTpk1j4sSJfnVqQKPa2lp27tzJkSNHePjhh3n88cfbdXnFxcV88MEHqFQqEhISiIiIaNfldTSTycSePXsYMWIETz75JMHBwR227C4ZbB9++CHbt29n+vTpjB8//gef66mppOp0/eXf+hIwJJhgjcqH1bhweTRcmaWHynIXwVHBeFwuNBpNi+Zy8eJFioqK2LdvH88//zwxMTE+rLHtbDYbq1evJiIighkzZrT49YCHmvIyyl0qwsKiCMYFwcFQU0a5J4qx4b7cBoDLhUejoWGuLmpqVAQHqwAPLhdoWrHNDx8+zF//+leGDBnCkiVL2mWXxueff86HH37Ivffey5QpU+jZs2XnyntclZSXVeEJjiIqTIXHoyG4pZukaSaVlBUfoiZ4CtPHNjfxtevMU1ODJzgYDYDLhUujoaWLdLlcFBQUcOzYMf7lX/6lw/YRdrmRB6WlpXz66ac8/vjjtww1AJUGyn7/E37yipGamnKMbz7P7PStlHl8UIyrhPz8crjqM+PancHTGYW4AI2njPzd5bRkUb169eKBBx7ggQceYMOGDRw/ftwHBd6e2tpa1q5dy/jx45k9e3aLQ81TtpXFP1vM5jLQaODQtsU88rMNlLnKKXzleTK21/i0Tk9ZIXllHlSAp6aMremP8fS2qsuPqqC8kMJWbPCRI0fyxBNPUFtby/r16/H1d//+/fvZtm0bqamp3HvvvS0MtRp2v/w0z79hpEYTjKrGyBs/e4Tlha5WLr2Sra98DGOHUGX8khu3RA3FeYVUoQJcVO5+mZ898gpfNj6sclGSX0xlC5em0WhISUkhKiqKdevWtfmcxdbqUsF2/PhxNmzYwLRp0wgPD2/ZRKpwoqKGoAkbw9Sp05nzL/+XKeVv8UHJ7VZTQ/6bhQxJmHDl26ummMIqFcGNQRc8lSmnt7K5pOUfqkmTJhEeHs6bb76J2+2+3SLb7MyZM7zxxhuEhYWh1+tbPqFrNxlPv4vml2v5TdIExkaNJeGZtayZG45HE8X4CUN8W6irmDfzPCRMbejmqILHop865OrvGjQTEggwvsnuVmSAWq0mNTWVw4cPs3XrVp+VW15ezrvvvsuPfvSjlr+HgfLNz7Pk0ExWrJzL9LFRjJ06h5Vvv4Re1cpv6Boj26sCGBI8gbnPJHB957By61scGptEQ0NOQ/h0PVFXr0xVONPHV7F5c3mrFvvQQw+hVqv5j//4D+rr6289wW3qUsFmNBq5ePEicXFxbZ6Hq8zIIaYw5fJBSFfJVjbn76Yw7/dk/H43Nbgoy1vM7J+8THHlbn6/bDMlzTUwyrfxwekpTGja6DXsNnqYoh9zzdOC9WMpeSuvmW/Gm5s+fTonTpzgwIEDbXiFvlFcXMyJEydISEho1bleni8/oFA1k8enXvNpYML8nzL12mdStvX3bN69m7yXM9haDuCiJG8zhcW72fr7rZQDNbu3snV3MYUbNpDfzEqsyX+X8gn6W3SNVEwYc4J3P2jdh1Gj0TBp0iR27drFuXPnWjXtzXz++ecEBARw9913t2KqcgrzypjweBLXRGFwEj9NCgZPOYWbt1K4O58NGRlsLfOAq4zNi3/Gsg1b2ZDxND9ZnE8llRR/bKS88ksK84upvD4TPcW8+3EAU8beopzwKYQb36Q1jcVevXqh1+ux2Wx8/fXXLZ+wjbpUsDkcDsLCwtp0UqWr7GM2b/49r7xRCFMTGr6RPLt55Y0qpiRNJ2HOr9BXrSAj38PYOS/xzJAvefetQ0z45XwmNLPPs6bYiCsqvKllUFloBP10bth1pAkjuPJLDrTii3Xw4MH07dsXh8PR6tfpKydPnmTQoEGtHi3hqjmBJyC4maC5fsW4qDodxpTp05kSVc42YyVQTv4HJXjCpjJnzlQC8HBg2zYOqcaS8NMExt6wm8zDgS8rCQ67dRdZFR6Fy1jcqi8YgOHDhwMN3XJfOHXqFGFhYa2cqobyExDQzK4AFVD5QQZ5Q5JImJ7EM/PD2Lb4Tco0YwmjCs+YOTyz8v8ypXwbX7rCmaqfwJDgKSQkTb3xvVp1gBJVFLduUwcTFnAAY1nrXsWwYcPo1atXh7yvu1SwXbp0qc3DkjRjZzF//m949b23ebwqg/Q3y6DqEGWuxh3OKsZPCaO8pAoIJumZKVR+WU7ATT4znnoPKtXlc3Rc+byVd4Avt23g9xu2U1W+nQ1bGz9EKvpyGlcrewwBAQE+37fTGhcvXmzT6AhNcBiqE+UtCJBg9AlhlBfu5lC5Bzz1wATmP6Nhwz/NZrHRhQoV+l/9FFfGI8x+peTGbMSD6zT0bclxgb4qVJ7TLdrfec3ruRwmly5dauWUzbt06RIDBgxo5VTBRA2Bqprm1qqHQ8VloLq8EqLGE3X6EGUu6AuoVCpAhQbw3OrFu2rwoLpxNd9ARV+Vp9Xv6Z49ezJgwACfrcsfXFa7L8GHoqOjrxkj1zYaNH2h/rQHhkQRduJLyi43qU+fhqgJUUAlhQcm8NL8KjLeKKa5FndwWBiemsvjTjV6fvmrn5Kk15OUMIYhQ8agnxp1udXi4TRDaEGjokl9fT0nT55UdNCxTqejqqrqmnGCLaHS/5QklZEPruuneCorrw07z24yFhsJS5jO+KadOJXUj1nJRx+uJCw/gw1lUMMU1n70J37FBpZ9cP0uaw1hYXC6JV2i0zV4hoS1+GheI6vV2nT2vy+MHDmSqqqqWz/xGlHM+ukEyj/Ydt1BLxeVlR6iJoRRXny5m+3xQNgYmj3YeSthUQR7TjT7fr+Wh9OuIYS18uyN06dP43K5OmS0TZcKtqioKJxOJ2VlLW8DeyqLMR44QU3Zx2zN28rmlxezuf6nrPrlBNAk8NLKMPLfyKO4OB8j83kpyUPx79+gZEwC0x+fz9jC5WTk3XhkUzUliaiqsssfVg3hY8cyduxYxkaFodGEMTYquOGbr/IQrqmzmNCK1/n3v/+dHj16KDoaYfTo0Vy8eJE9e/a0bkLVVF567/+i2vw8i3+/lfz8PLZu3UpeOWg8lRwoOcGJkgNUelSoTm/njYzNFFbBicI8imuqyHtrM8WnNYydkoQ+zMOhrW+RV1bPkPF6kqbc+EmaMEuP68BV+85c5XxZUsWJsjLKr/qEusqqiEq61b64a3k8Hv7+97+j0+l8Nqa08QujcdhfS4XPXcPbSSVkPJ/Bhrx88vO2snWrkRMaDVHzVzLnxAY2FBazO+8Q4196hrGeMg5Vuag6VI6rsoySE5UcKq+ivKSEqqov+bK8mfgK1jMroIxDTW92DzXFX1LuqqKkpPKqz0AZJfV6km61L+46O3bsoG/fvq06aNJWXeo8Nq/Xy7p16/juu++YP3++D4fwePB4VE2t+ZaqzN/Al2OfYc5N88dDyeY3OTHrNyS08NvNarWSk5PDI488wmOPPda6gnzsww8/5JNPPiEpKYkxY8bceoLreVzUuEATrLlJ98bT1PXxeK70pjwNJ1FdmcbjwqO62Txc7N6wDc38+VcdyLleOXm/L2HKb+bQ0o+U1+vlL3/5C3a7nWXLlrVhv1jzLl68yOrVqzl69ChPPPFEm0ZuuGpq8GiCrxx9b3T1SmwjT/lWNpcl8EzSzd+wrt0b+ED1U56Z2vKvib1797Jr1y7mz5/Pfffdd1s1tkSvFStWrGj3pfhIjx49GD9+PF988QWHDh0iOjr68j6E29WbtpyDqdGNQ2X5G6c0kdzRTBmusr9xfMwcpoe2bOZVVVX8z//8DyNHjmTBggWtL8jHxowZQ01NDTt37iQgIKD1J1f2VjFggOoHLvrXu+mxq9d/b9V10/T+oXmoiBw3BGtxFZrI4GbCz0V5sZWQ2YlEtnAbu91uPvnkE77//nt+9atf+bTl3LNnTyZOnEhxcTEHDx4kPDy81fvcVAMGMKC51+KDE4l73xHDqIv7KPGEEK5pZn41JRTXT2HO5JZf4GD//v389a9/ZebMmTz88MO3XWNLdKkWW6NTp07xzjvvcPz4cR599FHFBi770v/+7/+ya9cuJk2axM9+9jMfBfbt83q9fPbZZ/z3f/83w4cP55FHHvHr68pZrVY+/vhj+vfvz9NPP91u+zldLhebNm3i0KFDTJ8+nUmTJrXLcpRUV1fHxx9/TGVlJbNnzyYxMbHDLhPVJYOtUU5ODgUFBdx1111MmjRJ0UsTtdXVA7CfeOKJ1p0M24GOHj1KVlYWJ06caLqe2R133KF0WT5TXl7OV199xbfffsvMmTN5/PHHO2Q87K5du9iyZQvDhg1jwoQJjB3byh1XnZDL5eLgwYMcOHCAgQMH8otf/MJnXfmW6tLBBg1jGQ0GAwcOHCA0NJTx48ej0+k69SDturo6ysrK2LdvHy6Xi+nTp/PII490quuX3cyBAwcoLCzEYrEQEhLCuHHjGDVqVJdsxR0/fpyvv/6ab775hgsXLnDvvfcyc+ZMQkJCOrQOp9PJrl272LVrF/X19YwePZpx48YxbNiwDq3jdly4cIHDhw9TWlqKzWZrujiFUi3RLh9sjaqrq8nPz8dkMgENR1BHjx5NdHR0p7guW11dHRaLhW+++YbKykpUKhUPPvggCQkJXfLKJNXV1Wzfvp0vvvgCt9vN0KFDiYqKIjo6Gq1W2ymvTHv+/HmOHDnCd999x5EjRzh79iwhISHEx8dz7733Kt79v3DhAiaTiYKCAqqqqhgwYABRUVGMHDmSyMhIevXqpWh91zt37hzffvsthw8fpqKiAoB77rmHhx9+2Genx7SV3wRbo3PnzlFSUkJxcTGHDh0C4M477yQ0NJSQkBBCQkI6pHXhcDiw2+0cP36c48ePU1lZSZ8+fZgwYQKTJk1i3LhxnbpV2Rpff/01ZrOZkpISTp06Rb9+/QgLC0Or1TJkyBCGDBmiyHXb7HY7NTU1nDhxArvdTmVlw3lw0dHRjB8/nnHjxnV4F6mlqqqqmtbpkSNH6N27d9M6HTp0KEOHDu3wXQHHjh2jpqaGmpqapkuuq1Qq7rrrLu655x5iYmI6Tcvd74LtanV1dRw4cICysjKsVmvTyb0DBgwgODiYQYMGERgYSFBQEEFBQa3uCp4/fx6Hw4HD4cDpdFJbW9sUaPX19fTu3Zthw4YRFRXFuHHjOs2liNrT8ePHOXjwIOXl5VRWVjZdpaRPnz4MGTLkmrt5Nd4Jqa1d8Lq6umvuNNZ4t7FTp05x6tQpoOG+C6Ghodx5552MGjWKsWPHdrlb9509e7bphkSNlza/cOECvXr1YujQoQQGBja9jxvvmNaWU6HOnz9/zXpsfF87nU5OnDgBwMCBAwkLC+POO+9sOG+zk+4T9Otga87333+P1WqlqqqK6upqampqOHnyZNPjvXv3pm/fvk3/N97Z5+r7XTbeIalRnz59GDx4MMHBwYSEhDRd878jTkTsCiorKzl27FhT6/XkyZOcOnXqhjGDKpXqmjuENd6l6uq7g119l7BGffv2bfpiGjJkCFqttulmJ/5whd/mHD9+nGPHjmGz2bDb7Zw8eZLa2lpcrisn3l59Z6rGn/v27cvFixeb1mXjP89V46169erFHXfcweDBgxkyZEjTDXnuvPPOTtMiu5VuF2w30/jGqKurawqxxpsmV1VVMXz48BtuljxgwAAGDx7cpa7139nU1tZSW1uL2+2+4abJ9fX1HD16lOHDhzd9KK++cfLAgQMZNGiQX93xyxeqq6txOBxN6/TqL2WbzcawYcOavWFyv379/Ob9LMF2CxUVFUybNo1vv/22095D0V+VlZWRkpLSIZe56S5SUlJIS0tjzpw5SpfSrrrUWFElvPzyy9hsNjZu3Kh0Kd3OSy+9RFlZGdu2bVO6FL9QVlZGXl4ev/3tb5Uupd1Ji+0H2Gw29Ho9w4YNo7a2ltLSUmm1dZCSkhJ+/OMfExYWxtmzZ5tO4xFtl5KSgsPhoLa2ln/7t39r95vVKElabD+g8QbMR44cIT8/n+LiYqVL6ja+/vpr3n//fZxOJxs2bGDfvn1Kl9SlWa1WnnnmGQIDA/ntb3/L6dOnlS6pXUmL7RbsdjsTJkzwwXXgRGsdOHCAJ598kv379ytdit+YM2cOP//5zxW/ckx7kxabEMLvSLAJIfyOBJsQwu9IsAkh/I4EmxDC70iwCSH8jgSbEMLvSLAJIfyOBJsQwu9IsAkh/I4EmxDC70iwCSH8jgSbEMLvSLAJIfyOBJsQwu9IsAkh/I4EmxDC70iwCSH8jgSbEMLvSLAJIfyOBJsQwu9IsAkh/I4EmxDC70iwCSH8jgSbEMLvdNo7wX/55Zfs3r1b6TK4cOECFouFu+66S+lSAEhJSWHEiBFKl9Fmp0+f5g9/+EOLnltXV0dlZSWjRo1q0fOHDx/OP/3TP91OeV3S559/jtlsbtFzrVYrQUFBBAYGtuj5P/nJT4iIiLid8hTRW+kCbqa2thar1Up4eLiidfTo0YPRo0dz8eJFResAKC8v5+zZs0qXcVvOnz/Pt99+y/Dhw+nTp88PPrdv375ERUW1aN3X1tb6qsQu5/jx41RVVRESEnLL5zZ+nm61Tr1eL99//z11dXU+qbGjddpgA7jjjjtIT09XuoxO4dKlSyxdupRO2sButR//+McMGzbMZ/P7n//5H44ePeqz+XUlXq+XESNGsGDBAp/Ns76+npdeeqnLvt9kH5sQwu9IsAkh/I4EmxDC73ShYHNgt1iwXP5ntTtaPwu3FZPZ7vvSblwQDof7ql/t3Kpch8WCHcDt4OpJhRCt14WCTQ2WVcy6fxEGq51Swwpm3T+XLHNLU8CNJXsxc1cZad/csGPMNmBDDYDDksOz989k1bc/NEkOz83JwASgVmMrzMHUhtz2Cw4zhgIz3fXl+54bq9GA0ap0HR2rSwWbVheDNjCCmEQ9yQvXsTLOxIpMY4un18WOomVn77SdNWsVpTGpxAY1/B6kSyAh8genwFBYTWCguqnO2GQdplXZdLP3YoMgHYH5i1hhlGarb6iJjLCzdnEWHdFX6Sy6ULBdx23BZPYQE6e7/LsZQ04OOVmLmPtsDlbAXpBFVoERw5o15DRuVaeJ3MwMFsTPIsPoBtyYszLILCgg+8VFZFnAYc7i2fgFZGRm8Oys+5n1YgF2wG0tICcnh6wXF7Agy3xjy89tZG1uINNiW/4yLIYiAhOmob3mr7HEkc3alma2X1GjT4vDnN3eLetuJDKZFHLJ7UbflF0v2DwW8jMWcP/9i7Av2U7ewobmkCVzBbnVoA7UQdEyVhndmLZkU6qOIfmpZGJVl6dXx5KQvpJ3lgSSm2sCnNicEUxLTGSazkJ2oZWg2AiodhP31ErW560jpnAFmWY72cs2YkNNoE6FecUqDNf3l2wmTGrddSF1c25LDiZtEvpmJojQgclkaeNK6uLi0tBbcpFGm69oSZoXiCG/+7yful6wqXQkLV9OWqAFo6Xxne/AbHIzLSWV5NR0tn51mPV6NQnLF+JcNJn7l5mgsaenUhEIqFWB4HYDWhKSI7AYCii1uMHtoeHJalRqQB1HQpwTm92Mya4jITWZ1IXr2VexldSg62pz2nGjQkVLWMlelYvZsJE1GRsx2s1kZ2RjvhyWKrUat915myurq4ogLtLElsLLK8NtxWR4kQVrWjZsSNwoKDYOd7aBhmizYzIYKCjIYc2LmX65P7frBZsHUOtI3/oq2sx5LCpwAEFoA23kGi63td0WTGYHdqaxac92lrOGZzde3w73XH5uAYsWFBKZnEicTs2NHDidOqbptGg9heQ2HqywmjBdv9MiQofWXU3L4khL8vLlpKUkkJCSQGxgJPrkaURcDkun041WN7RFc/IvbszZW2BeMvbswoaDCOpI4uJiCeyuOX+77AVkmmJYqDOQbQawYbYFok9MJSXSSHap0gX6XhcKNjvmwiJs7lIKC6y4tam8sykB01NzeNFgJW7JYtRrZ3L/nLksyDATqFNTmrWK7FIP2rgEUqcFYjV/S7XNhMnuwFxqxW4pxeJWo3bmk7EoE4MNqg3ZGO2A20J+toGCnI2UJr9KWmQs6ct1GObcz6y5C1hUCKOu70JqE0gJNFN6VRfKYS2iyOrEZjJjdwP2bOYMH8eLJjVaXSyxsbHExuqICAwkIi6ShlxzYzGrSf7how5+yI05M4Mi3TySE58i2ZlLvh+2JjqU3UDGGidJaYmkzNNhzDYBcSxM16N2mym06EmLU7pI3+vUY0WvpSU2PY+Kq4aOqvXr2FfR+NtC8r5Kw+0Gtbqh5aV7bT24HbjjXiMOIDaPioWXn75kBzVLGn5c99Ve3KhRk06aG9RqI9lqHUkpCejVySQ2Li95E/uS3bjdatTNNe6IJG1lHJkGO6Q2pF5QZDLr9iVfVXQaW/LAcM3hWR1Ldmy68qvdQFHcCpZ3s1yzZD1H5tAVrI8LAoJISfHwXK6VtIXdbEX4iqOAF5dZSH1nCZEA+jRiV2VjdMehx4rRYEe/IoVAN1d21fiJLhRsLdFM4KiDWrDN1E3PUasBtxuP243nqr//4DKuflS3kKfcBRitevSRzXdt7YEJpOpuMgO3FaNZx+KFsf72XrslXdo7rL9q5WoXbmGjA3DbMRtNWGxujNYI9JHX79wUzQrSs/KdxCvvV7WedR/H4FZbyV7wHNlo0eZuYdrKTSz0s1XqZ8HmGw4bpLyahqrUijsustUBExSbiP7mjxJ5s1ADUEeiT/yBx/3Zjd9KBAU1/B+buo6PUxWoqUu72Rd9EGmbPiZNkZo6hgRbM4J0iST/UPgIITq1LnTwQAghWkaCTQjhdyTYhBB+R4JNCOF3OvXBA7vdzm9+8xulyxDtYM2aNT6fZ0vvZuWPDh48KJ+Vq3Ta2+/V1tZSU1OjdFLPsy4AACAASURBVBkAFBcX85e//IWhQ4cSHBxMSEgI8fHxqFQtGxXqS+Hh4QwYMKDDl+srFy5c4Lvvvmvx83ft2sW6des4c+YM58+fJy0tjZ///OfNrvv+/fszfPhwX5bbJRw/fhyn88bxZpcuXSInJ4c//OEPeL1eAgICmDdvXqtuUTh8+HD69+/vy3I7hlfc0oULF7wTJ070DhgwwDtnzhxvZWWl0iV1K8nJyd5+/fp5o6OjvRs3blS6nC4lNzfXO3HiRG9oaKh3woQJXrfbrXRJHUL2sbVAr1692LBhAyEhIQQEBJCWlsaRI0eULqvb2Lp1K8OGDeM///M/MRqNBAcH8/rrrytdVqf2hz/8gZEjR5Kdnc2bb75Jz549+eijjxTpZShBgq2FJk2axI9//GP++Mc/snLlSmbMmMGKFSuULqtbGDhwIAaDgTNnzrBx40bKyso4efIkPXv25IUXXqC6ulrpEjsFj8fD7373OzQaDfv37+ezzz4jNzcXjUbDli1buuQd3dtKgq0Vli9fjtfr5YEHHuD777+nR48eREZGsnPnTqVL83tjxowhPj4egCFDhvDaa69x6dIltFotMTExPPnkkxw8eFDhKpVRWVnJr3/9awIDA/F4PFRVVbF+/Xqio6MBGD16NNOnT1e4yo7VaQ8edBU2m40nn3yS4cOHs2nTJnr2lO8KJWzevJnVq1cTGRnJCy+8wIMPPqh0Se1u//79vP766xQVFfHCCy/wz//8z0qX1HkovI/Pb2zevNnbs2dPb1ZWltKldGv5+fneBx980Dt58mTvn//8Z6XLaRefffaZd+bMmd577rnHu3XrVqXL6ZSkxeZjCxcu5Ntvv2XTpk1NXQHR8fbu3cvrr7/Ol19+ydKlS0lPT7/1RJ3cf/3Xf7F69WpCQkJYunQpM2fOVLqkzkvpZPVHu3fv9kZHR3t/+9vfKl1Kt3fkyBFvenq6t3///t4VK1Z4z549q3RJrbZmzRpvaGio94knnvAeOHBA6XK6BNkh1A70ej2HDx9GpVIxfPhwCgsLlS6p24qMjOTtt9+mpqYGr9dLcHAwzz//PFZr574XncPh4KWXXqJPnz5UVFSwb98+3n//fWJjW3Fvx25Mgq0d/fa3v+Xvf/87r732Gk888QTnz59XuqRuq3///qxYsYKzZ89y991388ADD/CTn/yEvXv3Kl3aNSwWC//n//wfRowYQUBAAHV1daxZs4bQ0FClS+talG4ydhf/9V//5e3Tp493w4YNSpciLvvzn//snTx5svfBBx/05ufnK1pLUVGRd/bs2V6dTud99913Fa3FH8jBgw72zDPPcPDgQTZt2oROJ5fp7Qz++te/snr1aqxWKy+88ALz58/vsGV/+OGHrF69mh49evDCCy8we/bsDlu2X1M6WbujPXv2eHU6nXf58uVKlyKu8tVXX3nnz5/vHTp0qHf16tXtuqwNGzZ4R44c6X3ssce8e/bsaddldUeyj00B9913H9988w0BAQEMGzaMzz77TOmSBHD33Xfzxz/+kdLSUux2Oz179uTFF1/kxIkTPpn/+fPneeWVVwgKCsJkMvHJJ5+wbds27rvvPp/MX1whwaag5cuXs2/fPtauXcvcuXPxeDxKlySAoUOHsnr1ai5dusTgwYMZO3YsTz31FGVlZW2a39GjR1m8eDEDBgzg7NmzWK1WNmzYwMiRI31cuWgkwaaw0NBQPv30U2bPnk1gYCDr169XuiRxlaVLl1JTU4NeryclJYVHH32U3bt3t2jaAwcOkJaWRlxcHJGRkdTX1/Pyyy8TGBh464nFbZGDB53Mc889x/79+/njH//ImDFjlC5HXMdgMLB69WrcbjdLly4lJSXlhucUFhby+uuvU11dzdKlS5k3b54ClXZzSu/kEzf64osvvGPGjPEuXbpU6VLETRQXF3tTUlK8I0aM8L7zzjter9frzc7O9k6YMMGbkJDg/fzzzxWusHuTFls7OHz4MEePHsXlcnE7qzc3N5c+ffrwj//4j7dVT48ePdBoNISHhxMVFXVb8/InR44coaKiAqfT2ebtZLfbycvLo7q6moEDB/L444/f1jrWaDSEhIQwevToNs9DSFfUpy5cuMDWrVspKiry6Tx79/bdPXcefPBBfvKTn9CrVy+fzbOruXTpEnl5eRQUFPhsnm63G7Va7bP5TZw4kQULFtC3b1+fzbM7kWDzoaysLL766itmz55NdHQ0QUFBSpfU5NSpUxw+fJj//u//ZuLEifz85z9XuiTF/OUvf8FoNPLoo4+i0+kYNGiQ0iU1cTqdHDlyhG3btjFixAh++ctfKl1SlyRHRX3EbDbz5Zdf8vzzzzNp0qROFWoAd9xxB3FxcaSnp7Nnzx6++eYbpUtSxPfff09hYSG/+MUvuPfeeztVqAEEBgYyfvx4fvWrX1FaWtrpxrJ2FZ36vqJdyaFDhxg9ejRarfamz3FYLVRfPlVNpQokUKslyHe9lxYJDQ1l5MiRlJWVdcv9OIcOHWL48OE/eP3/zrCdBg8eTExMDIcOHWLy5Mkdu3A/IC02Hzl+/Pgtv/3VmMmYOZNlhXZsFiNbls1lzoI1FNg7qMjLBg0axNGjRzt2oZ3EsWPHuOOOO37wOZ1lOw0ePJhjx4517EL9hLTYfOTSpUu3vN+BOjKSiKGBEKdHHwf6xFSSsucwc5adrXteI66DWgW9e/fm7NmzHbOwTubSpUu3PHDSWbZTnz595FJXbSTB1qFuvKdjZNpikjPmkWVcSYzOiMHkxGnKp0i3mHdSYOPiZZhjUtDZ8jE457FpUyqRVgOZRSpiVEWYApezJNGNyVCI1Wmj0GAnZd1rJN68RyxuqZXbaaEWU8ZzrHUmkBRhJtegZnHeOhKdsp2UIl1RxUWgi3BTXW0je9lGbKgJ1Kkwr1iFgVgisOGJSWPJuhXoLVsocoCjKBuDXUtMajrJkeA2rmCVwQOBEWidW1iWaVb6RfmhH9hODi0xOrCq4li4ZD3LdYVsMcl2UpK02BRnw1KtZZTOismuIz01mViSSV3Y8GgBoFKrATWBgNsDQSlLSJ43j2mGJF7d9BqqUguqhFdJTVaTmpzKSgVfjf/64e3kANTqyy09NSDbSVHSYutQN169w5q9lsKIxaTHadF6Csk1uy8/YMJ0k53VDnsgKXl7yVtoI2NZDgwNpDTXQMPTHZhNFtzt9RK6BdlOXZ202DqMG7vJSGm1HXd2FtlmD3aLGYt6Hnl5qUQC6ct1zJpzP6a4WHQJ6axIM7PR6sRWasERYcZkt6K1OEi2ZbKm9CkWRuhJSI4lMlnHU5nzmBm/hRhdDGnLVyK3/GirNmynhQ5KzVbs1RasDjWlFifWQDPVzo1kyXZShIw88JF169YxaNAgHn/88duckxu3W82tR+e4cbjV15xf1dJhPXl5eTidzm555/D33nuPCxcukJaWdptzav/t9Nlnn2GxWHjppZduq9LuSLqinU5LPiwNz7v+pFFfjlUUtyLbqTOTYBNC+B0JNiGE35FgE0L4HQm2Dua2mzFb5SB/p+ewYjJbla5CtJEEW0dyWDAsm8ei/A4eTS1ayYEldzFzVxThULoU0SYSbB0pSEdc3FClqxC3FIQubhRyL6muS07QVYwbc9YqiiKmEViYj3vhOhYONZIxbxG2tDzeSdNiz15GZsQKVkaYrh10nexk47K1WOKmYc+xkLYlHWeehYgYD4WlOlamxyn94vyKw5jJWssoppFPfuBy1iVYWrad0gIxrlrMRncSum+zcT+/jthvZDt1BGmxKcaJzRnBtMREpuksZBdaIUhPelokZpMNAJszhjS958ZB16o4hjrNuEels3XHepJdhWQXOtHGpfFUgrQIfa3a7iYmIZHEuEBMWwpxtHQ7uSPRaR1YiGNl3g5eGy7bqaNIsClGS0JyBBZDAaUWd8PodkCbshi9MROD1YglMIFYzJjsOhJSk0lduJ59FVtJDQJUgQQ2nvmpe4rlMdnMmTyHXLuc/OlruoQE1CYDBZYr+0Zbup3UKjWBkZc7tbKdOowEm1LcBSxaUEhkciJxuqve5Go96QvtrF1QSGBCJNCCQdf2aiKW76BoSwKFizLw3b2XBNjJfmoZlthkEmN1V/4s26lTk2DrSG4rJlM11SYTVrcatTOfjEWZGGxQbcjGePmDoJuXji4yFr0WIJb05ToMc+5n1twFLCqEUZgw2ar51mRuOGpnL2RtZgE2IkhITpaB1bfNgcX0LU6rmVI7BAbayF72IplGGypLLlvMDcdKb7mdAq2YTDZspiIsDmQ7dSAZBO8jbRsE78aNGjXgdnNl7KE1myxLEgsTg6597g8OunbjcEBQC+46IoPgWzsI/sq6v2YAeztvJxkE33ZyVFRRDaEGl0PNUUDG4i1YVNNYuf762/fdatC1mk52xz8/cmXdq9Vq2U5dgARbZxIUR8o8Neo4PbpbP1soRbZTpyfB1qkEEZuoV7oIcUuynTo7OXgghPA7EmxKcjhw48BisrR9TKLbgUPG1LcLt+MmW+U2B8g7bjZf4TMSbApxmw1kl3pwm1axYEEm37Z1Rmo1tsIcTPJZ8SlrQTZGZ3NHAW5/gHyQp5ScArmRS3uSYFOCw8iqbDdJei1BMXFE3NbM1MQm6zCtykYusuMbbvMa1tqmkRjZXLD5YIC8Vo/emUWmSaKtvUiwKcCeuxZLXAJXjvpbyM5YxNz4+5mzxnT5pNsCsrJyKDBk8uKiNRgd4LYXkDFrEnOzLZizFvFiTuO3fixxZLPWqMzr8S8OCtcWoUuIbPjVbcGQlY3BkMmzczMwXtdMcxgzycgqoCBrEYtyGs6wthdkkVVgxLBmDTl2wGogM7sAY04Gawoatpg2IRbTqmzkAlbtQ4Ktw7kxFVnRRl51MpM7gqTl69iat4KhG19ki8VOzqJ38CSkkpiczpK4Ip5bVgDaRJavTMaetYps0liZqms6Dy5CByaTRZFX5F9KKTQHEqFt+M2yMQNjbBrJyeksT4toHNLb5IYB8rgxbcmmVB1D8lPJxKpuvCM8AEERaK1FSKOtfUiwdTg3TieoVFf9SX35TkZBehJibJitFopK3agup5Y2JgaVpRQ7oI5bTHqQkVKGcnVHSaVW47Y7O+5l+C03bo/q8rp3YDba0V7ud0YmLyRRe+2zbxwgryZh+UKciyZz/zITqC/fEb5oHtPi12BRNZ2SjQonTgm2diHB1uGCiIgAZ7MZ5MZDHPpYHTERNkyNA6o9bgJ1MWgBtykX53OvEpH5HFlX7VRzOt1odXIpnNsXiTawMXCC0GqrMRRebgk7LFx7MLT5AfJ2prFpz3aWs4ZnN1pvuCN8Q2/WjZOhRMgohHYhwaaAuJQEnI3dRnUkuqE2cnIKKMjZgjPtVdK0WtLWLcezZRU5RiPZxkiWr0wESw6LstQkJ6ayJM3JigUZlwfOu7GY1SQ37hcSt0FHWooHU2nDb/rFK4jMmsWkWXN5dq2FwMhbDZA/TmnWKrJLPWjjEkidpsVTlMkagwUu3xE+CMBailOfglxqsn3IIHgfad0geAcFa7YQlJ5O3OWeibthZDTXH4dr0V3D7TlkGHQsXxh7w/TNkUHwtxgE7zaRmelg3pLEpgM8N98ONxkg73bgVl+9Pa++I7wbU+Yq7CkrSdY2M8vLZBB820mLTRFBJKYn4Taam86FUjcTatCCu4a7rRjNOha3MNREC6jjSE8LwnTVBdVuvh2uGyDf9Ofrt+eVO8I7zEbcSct/MNTE7ZGxoj6i0Wioq6tr+QTqSPSJPlhwG+Zz9uxZNBqNDxbe9Wg0GiorK2/9RG3cDQcKfCUoNpGWjDTtztvpdkmLzUfCw8OpqKhQuowWqaioICLi9k4L7qrCw8M5evSo0mW0iM1m67bb6XZJsPnIP/zDP1BXV8fevXuVLuUHFRcXc/HiRaZMmaJ0KYqYOHEiffr0Yffu3UqX8oNKS0s5efIker1cRaQt5OCBD1ksFjZs2MCYMWOIjo7mjjvuULqkJqdOneLw4cN88803PPfcc0RHRytdkmJsNhtvv/02I0aMQKfTMWjQIKVLauJ0Ojly5AglJSU8/fTT3H333UqX1CVJsPnYuXPn+OyzzygtLaWqqkrpcpoMHz6ccePG8dBDD9GvXz+ly1FcfX09n3/+OWazGau184yyHTZsWNN2GjhwoNLldFkSbJ3cnj17+PWvf83kyZOZPHkykyZNIiYmht695biPUi5evMjBgwfZt28fe/fuZd++ffzbv/0bs2bNUro0cZl8Ojq5+++/H41Gw5YtWzh9+jQjRozg0qVLSpfVrXm9Xk6dOsWuXbv48MMPiY6OllDrZOTgQRewatUqxo8fT0VFBUVFRfTt21fpkrq13r17U1xczMGDB5k+fTorVqxQuiRxHQm2LmDq1KnEx8eze/duvF4vDz74oLTaFPTII49w8uRJTCYT48eP59FHH1W6JHEd2cfWRTgcDoIu37dt165dxMfH89lnn5GQkKBwZd3Hnj17iI+P56OPPuLhhx8GwOVyyUm0nZAEWxeWmJhIXFwcr7zyitKl+L3f/e53fPrpp+zYsUN2BXQB0hXtwgoKCggICGg6OVi0j/j4eDwej+zf7EKkxeYHvvjiC+Lj4/nLX/5CUlKS0uX4jR07dpCQkMD27duZMWOG0uWIVpBg8yPJycmMHj2aN954Q+lSurx//dd/5W9/+xvbt29XuhTRBtIV9SMGg4GwsDDuueceuXdlG3k8Hu6//35UKpWEWhcmLTY/VFJSwowZM8jKymLOnDlKl9NlfPrppzz22GPs2LGD++67T+lyxG2QYPNjKSkphIaG8tZbbyldSqe3dOlSSktL+eSTT5QuRfiAdEX9WG5uLmPHjuWuu+7Cbpc7WDbH5XIxefJkgoODJdT8iLTYuoGysjJmzJjB2rVrmTt3rtLldBofffQRP//5z9mxYweTJk1SuhzhQxJs3ci8efMYMGAA7777rtKlKO7Xv/41VquVDz/8UOlSRDuQrmg3smXLFqZOnUp0dHSnugZZRzpx4gQxMTFER0dLqPkxabF1Q+Xl5cTHx7NixQqefPJJpcvpMH/+8595/vnn2blzJ+PGjVO6HNGOJNi6sQULFnDx4kX+8z//U+lS2t2zzz7LqVOn+NOf/qR0KaIDSFe0G9u0aROJiYmEh4djsViULqddVFVVodPpuOeeeyTUuhFpsQmqqqqIj49nyZIl/OIXv1C6HJ95//33Wb58OTt37mTUqFFKlyM6kASbaOJP3bXu1M0WN5KuqGiyfv16UlJSCA4OprS0VOly2qS8vJw777yTBx54QEKtG5MWm7jBiRMniI+P5+mnn+af//mflS6nxd577z1WrVrFjh07iIyMVLocoSBpsYkbDBkyBLPZzHfffcdjjz2mdDktMm/ePIqLi/nuu+8k1IQEm7i5//iP/2DBggVoNBr27t2rdDnNKisrIzQ0lEcffVRGVIgm0hUVt3T69Gni4+P58Y9/zNKlS5Uup8nbb7/N22+/zY4dOwgJCVG6HNGJSItN3FJAQAAmk4mTJ0/yyCOPKF0OAKmpqZSVlfH1119LqIkbSLCJFnvttdf49a9/jUqlYs+ePYrUUFJSwqBBg5g7d65cZ07clHRFRavV19cTHx/PQw89xL/+67922HLXrFnD+++/z44dO7jjjjs6bLmi65EWm2i1vn37UlRUxPnz54mPj++QZT766KNUVVWxf/9+CTVxS9JiE7dl586dzJw5k8LCwnYJueLiYuLj4/nTn/5EcnKyz+cv/JMEm/CJmTNn8g//8A/87ne/89k8X331VT788EN27NhB//79fTZf4f+kKyp8Yvv27fTr14/77rsPj8dz2/P70Y9+hNPp5IsvvpBQE60mLTbhU3//+9+ZMWMG27Zta9OpIbt37yY+Pp5PPvmExMTEdqhQdAcSbKJdzJo1i7vvvpvVq1e3eJqVK1eyY8cOduzYQa9evdqxOuHvpCsq2sXHH3+MVqtl0qRJuFyuH3zuxYsXeeCBB/B6vezatUtCTdw2abGJdvW///u/zJgxg82bNzc7oL6wsJCHH36YHTt2MH36dAUqFP5Igk10iMcff5zhw4fz//7f/2v620svvYTJZKKgoEDByoQ/kq6o6BDbtm1j1KhRjBs3DqfTyb333ktAQICEmmgX0mITLbJnzx5qa2tvez42m42NGzcyd+5cRo8efdvzCwgI4MEHH7zt+Qj/IsEmWuT111/nxIkTDB48WOlSmjgcDlQqFStWrFC6FNHJ9Fa6ANE1eL1eJk6cSFJSktKlNNm5cyf79u1TugzRCck+NiGE35FgE0L4HQk2IYTfkWATQvgdCTYhhN+Ro6Kibdx2LDbnDX8OjNAR6DRjceuIjVQrUJgQ0mITbaVWYc2cw/3PZmN1OnHa7VgKV7Hqz3sxLJvHonz7zad1u3E397MQPiItNtFGQehihoI9Dn1cHGoAfQxxdjXuM0N/YDor2Yty0a1fQtw1PwvhOxJsos2u7Whayc6ykLIw8aoWmBtz1iqKIqYRWJiPe+E6UpyZZBaWkpCjJygyp+nniNRR2AyFWJ02Cg12Uta9ht6ZzaJnDWgX6nEbcvg2YT15C3Ud/TJFFyRdUXF7LLlkZmaSuWYV2abrLwnuxOaMYFpiItN0FrILrQTF6YlQ60hOjWPUVT8HGlewyuCBwAi0zi0syzSj1ulQV3vQJaXz2qupuLMLsSryIkVXIy02cXt0KaSnJ6MGkqzW61pxWhKSIzAYClBb3KC9+b0Q7KUWVAmvkpqsJjU5lZUAmFCpVKjUgEeF2uPk9u+mILoDabGJNnNflzKRkZHXPaGARQsKiUxOJE53JfLU0NRdbfw5cGggpbkGGg45ODCbLDccVJCDDKKlJNhE2zjMFBpteCyFFFocV/7utmIyVVNtMmF1q1E788lYlInBBtWGbIz2CCICjazNyMHsuPKzbdpynrKvYGb8HOY+uxbbUB1YzXxbbafUYsduLsVuL8Vsl3gTtyaXLRIt8tprrxEZGdmGq3u4caNuaJm5Qa2+9m/X/gxutxu1umXnvzVe3WPlypWtrEn4O2mxiXZ2JbSu5JUadTOPNzxHTuoVt0+CTQjhdyTYhBB+R4JNCOF3JNiEEH5HTtAVLbZz50527typdBnXCAkJUboE0QnJ6R6iRWw2G3V1dT6Zl9FoRK/X+2ReKpWKO++80yfzEv5Dgk10qIqKCkaOHElJSQljx45Vuhzhp2Qfm+hQL7/8MvX19XJSrWhXEmyiw1itVgoKCtBqtZhMJr7++mulSxJ+SoJNdJiKigpKSkpwuVzs27ePkydPKl2S8FOyj010uP79+1NbWyvDp0S7kRabEMLvSLAJIfyOBJsQwu9IsAkh/I4EmxDC70iwCSH8jgSbEMLvSLAJIfyOBJsQwu9IsAkh/I4EmxDC70iwCSH8jgSbEMLvSLAJIfyOBJsQwu9IsAkh/I4EmxDC70iwCSH8jgSbEMLvSLAJIfyOBJsQwu9IsAkh/I4EmxDC70iwCSH8jgSbEMLvyJ3gu6HTp0+zfft27HY7Lperw5d/6tQpgoKC6NGjR4cud+DAgYSEhDBjxgyCgoI6dNmiY0mwdTNms5n33nuPQYMGERERgUajUbqkDuNyuaioqKCmpoYnn3ySyZMnK12SaCe9lS5AdJyamhree+899Ho9Dz/8sNLlKGbnzp28++67hIWFERoaqnQ5oh3IPrZuZNeuXYSEhHTrUAOYMWMG0dHR7Ny5U+lSRDuRYOtGKisriYiIULqMTmHEiBFUVFQoXYZoJxJs3cjp06fp16+f0mV0CgMGDMDhcChdhmgnEmxCCL8jwSaE8DsSbEIIvyPBJoTwOxJsQgi/I8EmhPA7EmxCCL8jwSaE8DsSbEIIvyPBJoTwOxJsQgi/I8EmhPA7EmzdmduOxWLBYm1mMPhVj7mbnxi7xYz1hgftmE3Wy9M4sJjM2Jud3oH1hmVf/pvFgv1W49Mb67NYsDoai2ic3o6j8XeTEZNFBrt3NxJs3ZlahdvwLJMnzyPLevUDbozL7mfyzGWYUKNuZlK3vZCMuc+Ra7vuAYeFIkMpTsBu2sizc9dibn7hqC1rmDN5JouMjit/M6/i2Uwr3OzK3W53Q2iqwZo5h/vnZlOtVjdN7zQsI8PkRo0Vw5qNFFosZD87kwUGCbfuRIKtWwsiVhfHZF0pmZmmK3+2Gyh0xhIRGIEusrlYA7U2jjhtc7PUk74yGS2gjYtB1/zkgBptnJ4EvRbDgqfItjb+bRrJ0+JobtZgJXtRJqUAaElcvhx9tRFTU5PQjc05jeVpkagdauLSl7AwbSGvpuuw2py3XBvCf0iwdXcqLcmLn4Ita2hs1FgMNmLmjULV+By3BUNmFoaCHNYsWkSWubHr58aU9SLPzrmf+AVZWNxgN2WyYFYGxuuX4zZjyMkhJ2sRc5/NobGBqEt5h61pdpbNy6Bxto1ZaDfmkJOTTcaCBawxOXCYMsksLMSQY2ro3mpTWJxSTeZaU0Mrzp6PKSKZWIAgLVp1Q+3ZRXGsnBfp6zUnOjEJNoE6Np0lcUWs2WIFt4lCTxzJVzWZrBsXkT00heTEVJakR5C9YFVT9zIi7TXW5+Wx0LmKZbl2tDERYLtxr5olcwW51aAO1EHRMlY1JZ+auJVbeFWbzbxFhiv74xwGlq01gToQ3VArq17MxRmnJ0KtIzm1sUWnRp/+FIG5DaFsyTWjS9ZdtVQ7JkM2Raa1LFphvMm+QuGPJNgEoCVlcRLVmWvJMZgITNJftV/NTamxFBr3Y+ni0DlLKXUAqBtaRWhJSNJhNdtpdoccDswmN9NSUklOTWfrV4dZr7/68UjSNm4iwbSIBZmlDQFkM2KNSCY1OZm013ZQs2Mhzba5dE+xeFoRazdmY7DrSbqmD6slLnUlm/LXojMZLndhRXcgb4cjxQAADj9JREFUwdbNuT0N/6v1S3gqMJtl+UNJuiZB1OjiIrAYLZcncENEDDHX7dx3OtXEJdzsfgpBaANt5Boud0DdFkzmhn5vUysqSM+rW5fAlmyKAAJ1qI25NB5XsJtMWGnITfd1805OT8G5ahW2aQnNH3MI0hKhi0Xu9tB9SLB1Zw4zubm5GLKN2N06nlr8FGnpyQS57RgLS7HZzRiMdiLS15FWvZY1BiMF2aXEvbaYWFRE6FSYDAYKCnIoDFzMysQg7CYTFqcNk9mBw1yKxWml1OxAv2Qx6rUzuX/OXBZkmAnUeTDl5pJryMV8uf+p1qWz6Z2UhgCKTGF5gokF0+KZs+BZst0RRBJBRKCRtRk5mK86yKnWLyY9OYW0xKuai5YsFsx9kewCIwU5NhJWpN3kgITwR3LD5G7k3//937nrrrv40Y9+1LYZuN1XuqRNf3PgJuiGP99kBpdn0aInX5m/OuiarrH7Jqeg3DCp3Y5TpUXbTDPOaDRiNBpZtWpVy2sRXYbcMFm0XHOBdE3o3HIGLQzAH5p/y0INQK3VtqI24U+kKyqE8DsSbEIIvyPBJoTwOxJsQgi/I8EmhPA7EmxCCL8jwSaE8DsSbEIIvyPBJoTwOxJsQgi/I8EmhPA7EmzdSO/evbl06ZLSZXQKXq+XXr16KV2GaCcSbN1ISEgItbW1SpfRKZw4cYJhw4YpXYZoJxJs3cjo0aM5dOgQbrdcJPurr75izJgxSpch2okEWzdy3333MWLECN5//33OnDmjdDmKOHv2LH/84x8ZOnQo8fHxSpcj2olcaLKbqa+vJz8/n08//ZTBgwcTGBiodEkdxuVyceLECeLj45k9e3brLngpuhQJtm7q7NmzHDp0iKNHj3b4su12O1ptx1+oOzQ0lDFjxjBw4MAOX7boWBJsokOdOXOGMWPGcODAAQYPHqx0OcJPyT420aHeeustqqqqWL16tdKlCD8mLTbRYc6cOcPIkSMJCAjAbv//7d1NTFz1/sfxd1o7h6c5UJih0AETDgYYwRbR0JgKmr8sborRlEXvbRrtppdFvS6MLvynC9NFvXfR5i5u/C9oEyVNrNWkLpAuzNwaQRdgIygtpxU8rTrD0wwDnOHp8JT/gjLlqQ+UAabH7yv5MWfOwG9+5zT59PzOw+/Xj2EYuFyurW6WsCE5YhOb5sqVK1y+fJlAIEBTUxPffvvtVjdJ2JQcsYlNl5SURDgclquSYsPIEZsQwnYk2IQQtiPBJoSwHQk2IYTtSLAJIWxHgk0IYTsSbEII25FgE0LYjgSbEMJ2JNiEELYjwSaEsB0JNiGE7UiwCSFsR4JNCGE7EmxCCNuRYBNC2I4EmxDCdiTYhBC2I8EmhLAdCTYhhO1IsAkhbEeCTQhhOxJsQgjbkWATQtiOBJsQwnZkJnjxSCzLYnx8nLGxMSYmJpienmZ2djZaZmZmlrxfvO7rr7/mlVdeweFwsH37dp544gm2b9++pCxet2PHDhITE0lKSiI5ORlFUbZ680Wck2ATAAwPDzMyMoJpmtHlSCTC6OgoY2Nj0QBbCLPVLATRtm3bVrwuX56bm2Nubo7Z2dn7Ls/MzKz6XcnJyUvCbqGoqoqqqqSmppKamkpaWhppaWkbuetEHJJg+xOYnp6mt7eX3t5eBgYGGBwcZHh4mOHhYUzTXBFUqqpGgyMhIYGEhAQSExNRFCX6fqEoikJSUtKGb8PExASWZUVfJycno2X5ZwthvDgUF0JvIezS09PJysoiKyuL7OxsHA7Hhm+D2DwSbDZiWRY9PT309vbS09NDIBCgt7eXoaEhABRFIT09HafTSXJyMikpKSQnJy95b6du3uTkJGNjY4yPjzM6OrqkjI2NEQqFsCwLgJ07d5KVlYXH4yE7O5vdu3eTnZ1NYmLiFm+FeBQSbI+xUChEd3c3XV1ddHd309fXB0BiYiIZGRmkp6fjcrlwuVykp6eTnJy8xS2OP+Pj4wwODq4o4+PjAGRmZpKfn09BQQFPPfUUmZmZW9xi8TAk2B4jExMTdHZ20tnZyfXr1xkaGsLtduN2u9m1axeZmZm4XC4SEhK2uqmPvcnJSQYHBxkYGFhSUlNTKSoqYs+ePTz99NOb0g0XayfBFudGRkZoa2vj6tWrdHd3o6oqeXl55Ofnk5uby/bt27e6iX8ac3Nz/PHHHxiGwa1btxgeHkbTNJ5//nnKysrkIkUckWCLQ7Ozs/z88880NTWh6zqqqlJYWEhRURFut3urmyfuGB4e5vr169y8eZOhoSEKCgp46aWXePbZZ+U/nC0mwRZnfvnlFz7++OPo0UBZWRm5ubmPVJfpNwhNzS87XRpuNYYNvQfLNFFUFTAx2nVMl5fSnIUvtggaOoblotSbw/LLFKZhYGkaK6M7hnVZfvT2AGileN0KWCYmKuo6r5kEAgHa2tro6upCVVXefPNNiouL11epeGQSbHHk4sWLXLlyhcLCQl588cV1d22sYBMf/vUt2v/2OedrvcQi1ywL7nXh1N90CUOrptId4NLpC+hEuPHfZpS/X+TcYTftF07TGIBQ62V+8pzk4r+r7gZPsJHjf22k5sr/UbXkC43Y1RVsor7+Fk6Pny/rb3Hw3Dlqcix0nw+rvJrSGOygSCRCc3Mzuq5TWVnJkSNH1l+pWLMntroBYt7Zs2e5du0aNTU15OXlxaROxe2lyAVBTYtJqJktpzgTqOVkzcpjKkuv42zgACcrFSzdwFV7ghNuoPoUf/nwv/iriwhpb3PisApWBe/8z2e0WlVUKwB+fM0hVOfKxLSMGNaFl4PvVaICnhuH8IWAHAVvlUb9qUu4TtSQs8595HQ6OXDgAM888wxfffUVIyMjHD9+fJ21irWSZ0XjQGtrK+3t7Rw6dChmobaCqVP/zhu8X3eBug+OceidRvxYGI0f8MbxU9TXvc+x1w/xfqMfzBZOv3GMegNM/QLvvP4BTZYfX/1lWlp9NBnm8spprmtFq5iPBcVbReVC9ikKbi0Pt7qPqn1qdJ3q8eC5kz2GrxVnRTmuVZod07rc7vmA9zfic9RSW7rwiZe9fMnZlrXt0vvJzc3l8OHD6LpOc3Nz7CoWD0WCLQ60tLRQWFi4sRcGVC8eAlhFNdSefJdy40taTQVNcxKMaByo/RfnPqrGOHOWFtWLpgQJAqrXixoJEiGH0lIXOeVVVGrLj/90mnUnnpUntGhvjnDwH5VLzoGZTc04amspBSyjkXZXFfseuOkxqsvU8V1u5qfLH/Ch725AezRo/8l4UCPWJC0tjeLiYlpaYpiY4qFIsMWBbds255/BAXeeLFBQmT9fxp11CkDOXvY6AgSWH5A9kIU1peBY1vsz2xsxyt+lZnH/LtiCL1LNe1VuwM+l/zSi+z6j7vRntIZ0Lp2+hL7K98esLtVLVe2/OP/PCnRfe3S1oihYwTVv+EOR09ibT86xxYGysjI+/fRT9u/fj9Pp3LqGWCYRdzleFXQAK/rj7q9Yq/wdObicJhELFg6nLKOJZiqoKVWBIP6gmxxFx/eTSlW1FwULv1+h6u23CVkAAQK+AFpVOZ5lB4SxrGuB4tbwandT0oxYuLXVOrCPbnx8HF3XOXjwYEzrFQ8mwRYHXnjhBb755hsaGhp47bXXSElJiUGtFkHdR3NgCsPnw9ircSNgErhhYHp02kN+3IYJKlj+Zhp9LlSjFe+7tXhRUSoU6j58H6vCRdARQm83qdA0AnVnuKC9y+El/T2NmuopLuhQXQoYF3jr2Fn8Tid1zJ+0f+/cUS4fe4vPTCfO/wCWQvnJ85zY575zNVPBozrxlOagYlD3+iF8NZ/zeUVLzOr6yFXH/7bu5W8HPBDQqD2qRfeVoStU/WO9lw7uGh8fp6GhgbS0NF5++eWY1SsejtzuESemp6f54osv+OGHH9i/fz979uzZnC/WT/P6GY1zH1WjLnRJ77Asa8VD8autm/+gnfp6k4O1lTG5AovZxKVWLzVVMTjvGK1LxQyaoLqX3rcWbOS0T+Ptw94V98M9io6ODr7//ntKSko4cuSIrQYWeFxIsMWZrq4uPvnkE2ZnZyktLaWkpGRjh9RpP8VfzmicP394lRtj1yjYTlPAQ2Xp+sPINAyI1W0q96vL8tPSEsFbub77/Kanp+ns7KStrY25uTmOHj2K1+tdR41iPSTY4tR3331HQ0MDY2Nj0edCn3zyyRg/j2hhtDSjh8C1t5x9OZvwaIKNRCIRbt++ze+//45hGCiKwquvvipdzzggwRbnrl69yo8//khHRwdTU1OkpqaSl5eHpmkbd8+buKfffvsNwzC4ffs24XCYHTt2UFxczHPPPUd5eflWN0/cIcH2GOno6ODatWvouk5/fz9AdKiirKws3G63DFsUI/catgjm93lRURElJSV4vV4ZfTcOSbA9psLhMDdu3ODXX3/l5s2bBIPB6GeJiYmkp6eTkZGBy+UiIyODjIwMGWhyFQ8aaBIgIyODgoIC8vPz8Xq9uFyxvS1ExJ4Em02Mjo5iGAY9PT309fURCATo7++PDn0N9x4aPCUlJVrsdAVvYWjwhXK/ocEBHA4Hu3btig4Lvnv3bjRN29p7C8UjkWCzuXA4TF9fX3QuhP7+fgYGBhgZGbnn36w2mcviSV0WJnFZvG6jLZ6wZWpqiomJiTVN5rJYampqdNThhQDLysoiIyNjw7dDbA4Jtj+xYDBIOBxe0gULhUIMDg4SDofXXN+jTL+3eKq9tUy/dz/p6enRrrjb7Wbnzp3RV5mz4M9Bgk3ck2VZD1WmpqaYmZm57yTJy5dXmxx5tYmTFyZMdjgc88+0LioOhyN69Lh4WQgJNiGE7cjoHkII25FgE0LYjgSbEMJ2JNiEELYjwSaEsJ3/B6EUpHxKKpGNAAAAAElFTkSuQmCC;" vertex="1" parent="1">
          <mxGeometry x="-140" width="310" height="364" as="geometry" />
        </mxCell>
        <mxCell id="EBjj6RX4kK_-6JCiUkeC-2" value="MobileNetV3" style="shape=cube;whiteSpace=wrap;html=1;boundedLbl=1;backgroundOutline=1;darkOpacity=0.05;darkOpacity2=0.1;" vertex="1" parent="1">
          <mxGeometry x="312.5" y="500" width="100" height="60" as="geometry" />
        </mxCell>
        <mxCell id="EBjj6RX4kK_-6JCiUkeC-5" value="Flatten" style="rounded=0;whiteSpace=wrap;html=1;" vertex="1" parent="1">
          <mxGeometry x="331" y="456" width="65" height="30" as="geometry" />
        </mxCell>
        <mxCell id="EBjj6RX4kK_-6JCiUkeC-7" value="" style="endArrow=classic;html=1;rounded=0;" edge="1" parent="1">
          <mxGeometry width="50" height="50" relative="1" as="geometry">
            <mxPoint x="364" y="510" as="sourcePoint" />
            <mxPoint x="364" y="486" as="targetPoint" />
          </mxGeometry>
        </mxCell>
        <mxCell id="EBjj6RX4kK_-6JCiUkeC-10" value="Input (224,224,3)" style="shape=cube;whiteSpace=wrap;html=1;boundedLbl=1;backgroundOutline=1;darkOpacity=0.05;darkOpacity2=0.1;" vertex="1" parent="1">
          <mxGeometry x="320" y="570" width="87" height="60" as="geometry" />
        </mxCell>
        <mxCell id="EBjj6RX4kK_-6JCiUkeC-11" value="" style="endArrow=none;html=1;rounded=0;" edge="1" parent="1">
          <mxGeometry width="50" height="50" relative="1" as="geometry">
            <mxPoint x="363.21" y="580" as="sourcePoint" />
            <mxPoint x="363.21" y="560" as="targetPoint" />
          </mxGeometry>
        </mxCell>
        <mxCell id="EBjj6RX4kK_-6JCiUkeC-12" value="&lt;div&gt;Dense&lt;/div&gt;&lt;div&gt;layers&lt;/div&gt;&lt;div&gt;(box)&lt;/div&gt;" style="whiteSpace=wrap;html=1;aspect=fixed;" vertex="1" parent="1">
          <mxGeometry x="300" y="375" width="50" height="50" as="geometry" />
        </mxCell>
        <mxCell id="EBjj6RX4kK_-6JCiUkeC-13" value="&lt;div&gt;Dense&lt;/div&gt;&lt;div&gt;layers&lt;/div&gt;&lt;div&gt;(class)&lt;/div&gt;" style="whiteSpace=wrap;html=1;aspect=fixed;" vertex="1" parent="1">
          <mxGeometry x="400" y="375" width="50" height="50" as="geometry" />
        </mxCell>
        <mxCell id="EBjj6RX4kK_-6JCiUkeC-14" value="" style="endArrow=classic;html=1;rounded=0;entryX=0.5;entryY=1;entryDx=0;entryDy=0;exitX=0.5;exitY=0;exitDx=0;exitDy=0;" edge="1" parent="1" source="EBjj6RX4kK_-6JCiUkeC-5" target="EBjj6RX4kK_-6JCiUkeC-13">
          <mxGeometry width="50" height="50" relative="1" as="geometry">
            <mxPoint x="380" y="460" as="sourcePoint" />
            <mxPoint x="430" y="410" as="targetPoint" />
            <Array as="points">
              <mxPoint x="364" y="440" />
              <mxPoint x="425" y="440" />
            </Array>
          </mxGeometry>
        </mxCell>
        <mxCell id="EBjj6RX4kK_-6JCiUkeC-17" value="" style="endArrow=classic;html=1;rounded=0;entryX=0.5;entryY=1;entryDx=0;entryDy=0;exitX=0.5;exitY=0;exitDx=0;exitDy=0;" edge="1" parent="1">
          <mxGeometry width="50" height="50" relative="1" as="geometry">
            <mxPoint x="363" y="456" as="sourcePoint" />
            <mxPoint x="327" y="425" as="targetPoint" />
            <Array as="points">
              <mxPoint x="363" y="440" />
              <mxPoint x="327" y="440" />
            </Array>
          </mxGeometry>
        </mxCell>
        <mxCell id="EBjj6RX4kK_-6JCiUkeC-35" style="edgeStyle=orthogonalEdgeStyle;rounded=0;orthogonalLoop=1;jettySize=auto;html=1;entryX=0.5;entryY=1;entryDx=0;entryDy=0;" edge="1" parent="1" source="EBjj6RX4kK_-6JCiUkeC-18" target="EBjj6RX4kK_-6JCiUkeC-32">
          <mxGeometry relative="1" as="geometry" />
        </mxCell>
        <mxCell id="EBjj6RX4kK_-6JCiUkeC-18" value="Reshape (1,4)" style="rounded=0;whiteSpace=wrap;html=1;" vertex="1" parent="1">
          <mxGeometry x="285" y="320" width="80" height="30" as="geometry" />
        </mxCell>
        <mxCell id="EBjj6RX4kK_-6JCiUkeC-19" value="" style="endArrow=classic;html=1;rounded=0;exitX=0.5;exitY=0;exitDx=0;exitDy=0;entryX=0.5;entryY=1;entryDx=0;entryDy=0;" edge="1" parent="1" source="EBjj6RX4kK_-6JCiUkeC-12" target="EBjj6RX4kK_-6JCiUkeC-18">
          <mxGeometry width="50" height="50" relative="1" as="geometry">
            <mxPoint x="420" y="350" as="sourcePoint" />
            <mxPoint x="470" y="300" as="targetPoint" />
          </mxGeometry>
        </mxCell>
        <mxCell id="EBjj6RX4kK_-6JCiUkeC-34" style="edgeStyle=orthogonalEdgeStyle;rounded=0;orthogonalLoop=1;jettySize=auto;html=1;entryX=0.5;entryY=1;entryDx=0;entryDy=0;" edge="1" parent="1" source="EBjj6RX4kK_-6JCiUkeC-20" target="EBjj6RX4kK_-6JCiUkeC-26">
          <mxGeometry relative="1" as="geometry" />
        </mxCell>
        <mxCell id="EBjj6RX4kK_-6JCiUkeC-20" value="&lt;div&gt;\(\lambda_1\)&lt;/div&gt;" style="rounded=0;whiteSpace=wrap;html=1;" vertex="1" parent="1">
          <mxGeometry x="380" y="320" width="40" height="30" as="geometry" />
        </mxCell>
        <mxCell id="EBjj6RX4kK_-6JCiUkeC-33" style="edgeStyle=orthogonalEdgeStyle;rounded=0;orthogonalLoop=1;jettySize=auto;html=1;entryX=0.5;entryY=1;entryDx=0;entryDy=0;" edge="1" parent="1" source="EBjj6RX4kK_-6JCiUkeC-21" target="EBjj6RX4kK_-6JCiUkeC-30">
          <mxGeometry relative="1" as="geometry" />
        </mxCell>
        <mxCell id="EBjj6RX4kK_-6JCiUkeC-21" value="&lt;div&gt;\(\lambda_2\)&lt;/div&gt;" style="rounded=0;whiteSpace=wrap;html=1;" vertex="1" parent="1">
          <mxGeometry x="430" y="320" width="40" height="30" as="geometry" />
        </mxCell>
        <mxCell id="EBjj6RX4kK_-6JCiUkeC-22" value="" style="endArrow=classic;html=1;rounded=0;entryX=0.5;entryY=1;entryDx=0;entryDy=0;" edge="1" parent="1" target="EBjj6RX4kK_-6JCiUkeC-21">
          <mxGeometry width="50" height="50" relative="1" as="geometry">
            <mxPoint x="425" y="375" as="sourcePoint" />
            <mxPoint x="550" y="355" as="targetPoint" />
            <Array as="points">
              <mxPoint x="425" y="365" />
              <mxPoint x="440" y="365" />
              <mxPoint x="450" y="365" />
            </Array>
          </mxGeometry>
        </mxCell>
        <mxCell id="EBjj6RX4kK_-6JCiUkeC-24" value="" style="endArrow=classic;html=1;rounded=0;entryX=0.5;entryY=1;entryDx=0;entryDy=0;" edge="1" parent="1">
          <mxGeometry width="50" height="50" relative="1" as="geometry">
            <mxPoint x="425" y="375" as="sourcePoint" />
            <mxPoint x="400" y="350" as="targetPoint" />
            <Array as="points">
              <mxPoint x="425" y="365" />
              <mxPoint x="410" y="365" />
              <mxPoint x="400" y="365" />
            </Array>
          </mxGeometry>
        </mxCell>
        <mxCell id="EBjj6RX4kK_-6JCiUkeC-26" value="&lt;div&gt;Class&lt;/div&gt;&lt;div&gt;(1)&lt;/div&gt;" style="rounded=0;whiteSpace=wrap;html=1;" vertex="1" parent="1">
          <mxGeometry x="379.25" y="263" width="41.5" height="40" as="geometry" />
        </mxCell>
        <mxCell id="EBjj6RX4kK_-6JCiUkeC-30" value="&lt;div&gt;Conf&lt;/div&gt;&lt;div&gt;(1)&lt;/div&gt;" style="rounded=0;whiteSpace=wrap;html=1;" vertex="1" parent="1">
          <mxGeometry x="429.25" y="263" width="41.5" height="40" as="geometry" />
        </mxCell>
        <mxCell id="EBjj6RX4kK_-6JCiUkeC-32" value="&lt;div&gt;Box&lt;/div&gt;&lt;div&gt;(4)&lt;/div&gt;" style="rounded=0;whiteSpace=wrap;html=1;" vertex="1" parent="1">
          <mxGeometry x="304.25" y="263" width="41.5" height="40" as="geometry" />
        </mxCell>
      </root>
    </mxGraphModel>
  </diagram>
</mxfile>
